<svg height="512" viewBox="0 0 512 512" width="512" xmlns="http://www.w3.org/2000/svg"><g id="Filled_outline" data-name="Filled outline"><path d="m424 329.88v158.12h-208l-.69-40a61.159 61.159 0 0 1 -11.77-56.63l-56.76 82.36a26.965 26.965 0 0 1 -48.83-22.7l66.27-138.42a47.988 47.988 0 0 1 38.95-27.08l53.55-4.87a8 8 0 0 0 7.28-7.97v-56.69h64v57.22a8 8 0 0 0 6.68 7.89l55.9 9.32a40 40 0 0 1 33.42 39.45z" fill="#fdc8a2"/><path d="m328 216v32.51a72.1 72.1 0 0 1 -64 0v-32.51z" fill="#fdb683"/><path d="m216 488v-40h-.688c-19.793-23.557-18.457-57.276.688-80l14-85 26-1.667v38.667a40 40 0 0 0 40 40 40 40 0 0 0 40-40v-38.667l26.286 4.381 13.714 82.286a62.086 62.086 0 0 1 0 80v40" fill="#d26699"/><path d="m376 64h-24v32h8a16 16 0 0 1 16 16v88a48 48 0 0 0 48 48v-136a48 48 0 0 0 -48-48z" fill="#663723"/><path d="m216 128h8a0 0 0 0 1 0 0v48a0 0 0 0 1 0 0h-8a24 24 0 0 1 -24-24 24 24 0 0 1 24-24z" fill="#fdb683"/><path d="m296 240a72 72 0 0 1 -72-72v-56a64 64 0 0 1 64-64h16a64 64 0 0 1 64 64v56a72 72 0 0 1 -72 72z" fill="#fdc8a2"/><path d="m288 24a80 80 0 0 0 -80 80v24c48 0 128-64 128-64l32 64 16 8v-32a80 80 0 0 0 -80-80z" fill="#7a432a"/><path d="m368 128h8a24 24 0 0 1 24 24 24 24 0 0 1 -24 24h-8a0 0 0 0 1 0 0v-48a0 0 0 0 1 0 0z" fill="#fdb683"/><path d="m264 488h-144v-96l32.727-72h78.546l32.727 72z" fill="#f9a40f"/><path d="m220.468 352h-56.936a16 16 0 0 1 -15.179-10.94l-12.353-37.06v-72l16-8h80l16 8v72l-12.353 37.06a16 16 0 0 1 -15.179 10.94z" fill="#ffb431"/><path d="m136 232-48 32 16 40h32z" fill="#f9a40f"/><path d="m248 232 48 32-16 40h-32z" fill="#f9a40f"/><path d="m208 320-16 8-16-8v-16h32z" fill="#7a432a"/><path d="m124 488h20l80-8 64 8 16-32 7.068-3.534a16.158 16.158 0 0 0 8.932-14.452 16.159 16.159 0 0 0 -13.873-16l-42.127-6.014-40 16h-100a28 28 0 0 0 -28 28 28 28 0 0 0 28 28z" fill="#fdc8a2"/><path d="m88 408v36a20 20 0 0 0 20 20h20v-32h16v-40h-40a16 16 0 0 0 -16 16z" fill="#f99e0c"/><path d="m184 392a16 16 0 0 0 -16 16v36a20 20 0 0 0 20 20h20v-32h16v-40z" fill="#f99e0c"/><path d="m386.274 213.334-15.086 5.332a56.1 56.1 0 0 0 52.812 37.334 8 8 0 0 0 8-8v-136a56.056 56.056 0 0 0 -54.251-55.956 88 88 0 0 0 -73.749-40.044h-16a88.1 88.1 0 0 0 -88 88v20.305a31.989 31.989 0 0 0 16 59.695h1.625a79.7 79.7 0 0 0 7.268 20.686l14.212-7.348a63.279 63.279 0 0 1 -7.105-29.338v-35.784c38.532-10.914 83.339-42.559 101.187-55.954l26.813 53.627v38.111a63.967 63.967 0 0 1 -64 64v16a79.511 79.511 0 0 0 24-3.661v28.881a15.946 15.946 0 0 0 8 13.87v32.91a32 32 0 0 1 -57.6 19.2l-12.8 9.609a48 48 0 0 0 86.4-28.809v-29.225l11.338 1.89 12.771 76.65a8 8 0 0 0 1.787 3.857c.7.822 1.424 1.744 2.2 2.787a54.1 54.1 0 0 1 -2.221 66.895 8.007 8.007 0 0 0 -1.875 5.146v48h16v-45.183a70.1 70.1 0 0 0 .962-84.368c-.487-.656-.959-1.273-1.42-1.858l-11.52-69.144 17.245 2.874a31.89 31.89 0 0 1 26.733 31.559v166.12h16v-166.12a47.837 47.837 0 0 0 -40.1-47.341l-55.9-9.319v-35.935a79.4 79.4 0 0 0 38.4-53.285h1.6a31.989 31.989 0 0 0 16-59.695v-20.305a87.574 87.574 0 0 0 -5.486-30.588 40.066 40.066 0 0 1 29.486 38.588v127.19a40.077 40.077 0 0 1 -29.726-25.856zm-186.274-61.334a16.019 16.019 0 0 1 16-16v32a16.019 16.019 0 0 1 -16-16zm176 16v-32a16 16 0 0 1 0 32zm-3.056-48-29.789-59.578a8 8 0 0 0 -12.155-2.67c-.733.587-69.706 55.37-115 61.661v-15.413a72.081 72.081 0 0 1 72-72h16a72.081 72.081 0 0 1 72 72v16z"/><path d="m260 128a12 12 0 1 0 12 12 12.013 12.013 0 0 0 -12-12z"/><path d="m344 140a12 12 0 1 0 -12 12 12.013 12.013 0 0 0 12-12z"/><path d="m296 200a24.028 24.028 0 0 0 24-24h-16a8 8 0 0 1 -16 0h-16a24.028 24.028 0 0 0 24 24z"/><path d="m160 264h16v16h-16z"/><path d="m208 264h16v16h-16z"/><path d="m307.262 414.1-35.262-5.038v-17.062a8 8 0 0 0 -.717-3.311l-24.854-54.678 7.338-22.011h26.233a8 8 0 0 0 7.428-5.029l16-40a8 8 0 0 0 -2.99-9.627l-48-32c-.153-.1-16.86-8.5-16.86-8.5a7.994 7.994 0 0 0 -3.578-.844h-80a7.994 7.994 0 0 0 -3.578.845l-16 8c-.3.149-48.86 32.5-48.86 32.5a8 8 0 0 0 -2.99 9.627l16 40a8 8 0 0 0 7.428 5.028h16v-16h-10.584l-11.577-28.944 30.161-20.108v57.052a8.027 8.027 0 0 0 .41 2.53l9.161 27.481-22.723 49.989h-10.848a24.028 24.028 0 0 0 -24 24v36a28.152 28.152 0 0 0 8.2 19.772 36.028 36.028 0 0 0 35.8 32.228h20c.266 0 .531-.014.8-.04l79.1-7.91 63.108 7.888a8.14 8.14 0 0 0 1 .062 8 8 0 0 0 7.152-4.422l14.807-29.613 4.69-2.342a24.16 24.16 0 0 0 -7.39-45.523zm-32.678-118.1h-18.584v-49.052l30.161 20.108zm-130.584-59.056 9.889-4.944h76.222l9.889 4.944v65.756l-11.943 35.827a7.989 7.989 0 0 1 -7.589 5.473h-20.468v-11.056l11.578-5.789a8 8 0 0 0 4.422-7.155v-16a8 8 0 0 0 -8-8h-32a8 8 0 0 0 -8 8v16a8 8 0 0 0 4.422 7.155l11.578 5.789v11.056h-20.468a7.989 7.989 0 0 1 -7.589-5.471l-11.943-35.829zm40 78.112v-3.056h16v3.056l-8 4zm-88 92.944a8.009 8.009 0 0 1 8-8h40v-16h-11.576l14.115-31.052a23.963 23.963 0 0 0 16.993 7.052h56.936a23.963 23.963 0 0 0 16.993-7.052l18.539 40.785v16.851l-33.541 13.416h-14.459a8 8 0 0 0 -8 8v24h-12a12.013 12.013 0 0 1 -12-12v-36a8.009 8.009 0 0 1 8-8h40v-16h-40a24.028 24.028 0 0 0 -24 24v16h-32a8 8 0 0 0 -8 8v24h-12a12 12 0 0 1 -12-12zm211.5 37.312-7.07 3.531a7.991 7.991 0 0 0 -3.581 3.579l-13.469 26.937-58.384-7.3a7.921 7.921 0 0 0 -1.788-.022l-79.608 7.963h-19.6a20.066 20.066 0 0 1 -14.138-5.853 20.214 20.214 0 0 1 -1.835-2.147h19.973a8 8 0 0 0 8-8v-24h24v4a28.032 28.032 0 0 0 28 28h20a8 8 0 0 0 8-8v-24h8a8 8 0 0 0 2.971-.572l38.014-15.206 40.015 5.716a8.161 8.161 0 0 1 2.5 15.374z"/></g></svg>